# File created by Blade
# Date/Time:  Tue Apr 07 20:49:23 2015
# Frame Rate: 120.000 fps
#------------------------------------------------------
:FULLY-SPECIFIED
:DEGREES
986
root 3.932777 34.853846 -6.845677 -4.274204 49.768911 -69.451502
Spine -19.185511 -13.059188 6.812190
Head 0.112506 7.045162 37.648770
LeftShoulder -14.974032 42.545861 21.251902
LeftArm 65.691486 1.063460 -74.734324
LeftForeArm 7.091098 0.000000 0.145500
LeftHand 9.469841 -0.000000 18.206908
LeftHandThumb1 -26.253704 0.000000 33.147579
RightShoulder -17.208179 -9.925090 -14.249616
RightArm -13.908071 34.027429 66.831549
RightForeArm 56.912944 -0.000000 0.034264
RightHand 6.633405 -0.000000 -11.313281
RightHandThumb1 -24.326973 -0.000000 -32.862282
LeftUpLeg -49.668325 31.739970 15.567462
LeftLeg -7.365796 -0.000000 0.000000
LeftFoot 0.527821 13.399283 -21.553462
LeftToeBase -1.647484 -0.000000 0.000000
RightUpLeg 5.304404 -3.802850 -10.566513
RightLeg 75.046075 -0.000000 -0.000000
RightFoot 46.402783 -3.075377 8.289327
RightToeBase 24.533637 -0.000000 -0.000000
987
root 3.969797 34.851578 -6.844756 -4.802877 49.568797 -69.332234
Spine -18.859618 -13.260298 6.819907
Head 0.633046 6.109531 37.789278
LeftShoulder -14.227332 41.946171 21.462402
LeftArm 66.371465 2.656526 -74.251596
LeftForeArm 7.238811 -0.000000 0.514395
LeftHand 9.452324 -0.000000 17.490588
LeftHandThumb1 -26.253704 0.000000 33.147579
RightShoulder -17.059099 -9.708496 -14.255150
RightArm -13.607011 33.998384 66.606891
RightForeArm 56.101298 -0.000000 0.495427
RightHand 6.397787 -0.000000 -10.746451
RightHandThumb1 -24.326973 -0.000000 -32.862282
LeftUpLeg -49.102572 31.574759 15.904221
LeftLeg -6.815627 -0.000000 0.000000
LeftFoot 0.214469 13.980407 -20.494635
LeftToeBase -2.487671 -0.000000 0.000000
RightUpLeg 4.988246 -4.638528 -10.210405
RightLeg 73.729511 -0.000000 -0.000000
RightFoot 46.243755 -3.224530 7.777914
RightToeBase 24.183769 -0.000000 -0.000000
988
root 4.006226 34.850104 -6.843886 -5.309929 49.313419 -69.169659
Spine -18.501769 -13.402586 6.807546
Head 1.093142 5.208035 37.912100
LeftShoulder -13.515872 41.424151 21.555885
LeftArm 67.259470 4.127322 -73.696879
LeftForeArm 7.480492 0.000000 0.937740
LeftHand 9.610823 -0.000000 17.024708
LeftHandThumb1 -26.253704 0.000000 33.147579
RightShoulder -17.029655 -9.455622 -14.291577
RightArm -13.254722 33.817090 66.428022
RightForeArm 55.512424 0.000000 0.954957
RightHand 6.195378 -0.000000 -10.947602
RightHandThumb1 -24.326973 -0.000000 -32.862282
LeftUpLeg -48.456593 31.400058 16.366247
LeftLeg -6.182260 -0.000000 0.000000
LeftFoot -0.131875 14.519953 -19.432177
LeftToeBase -3.265581 -0.000000 0.000000
RightUpLeg 4.654636 -5.403760 -9.829936
RightLeg 72.442246 -0.000000 -0.000000
RightFoot 45.918160 -3.568445 7.453841
RightToeBase 24.197662 -0.000000 -0.000000
989
root 4.044207 34.848156 -6.848672 -5.641287 48.974142 -68.828429
Spine -18.174239 -13.549381 6.730074
Head 1.554404 4.355038 38.019712
LeftShoulder -12.898198 40.811890 21.587245
LeftArm 67.994985 5.457274 -73.326839
LeftForeArm 8.074765 -0.000000 1.600226
LeftHand 9.873508 -0.000000 16.921761
LeftHandThumb1 -26.253704 0.000000 33.147579
RightShoulder -16.988979 -9.254011 -14.362693
RightArm -12.770838 33.615059 66.354706
RightForeArm 54.975475 -0.000000 1.381946
RightHand 6.143419 -0.000000 -10.348407
RightHandThumb1 -24.326973 -0.000000 -32.862282
LeftUpLeg -47.792819 31.314146 16.735792
LeftLeg -5.573615 -0.000000 0.000000
LeftFoot -0.398276 14.985345 -18.510108
LeftToeBase -4.105016 -0.000000 0.000000
RightUpLeg 4.215046 -5.996285 -9.543735
RightLeg 71.171743 -0.000000 -0.000000
RightFoot 45.414043 -4.276850 7.741531
RightToeBase 24.941317 -0.000000 -0.000000
990
root 4.091016 34.839930 -6.850840 -5.732304 48.514864 -68.031195
Spine -17.747063 -13.620673 6.289764
Head 2.055432 3.503440 38.230194
LeftShoulder -12.365974 40.396160 21.554240
LeftArm 68.968237 6.761952 -72.562097
LeftForeArm 8.305976 -0.000000 2.376138
LeftHand 10.092834 0.000000 16.799337
LeftHandThumb1 -26.253704 0.000000 33.147579
RightShoulder -16.957587 -9.051645 -14.388623
RightArm -12.368145 33.440387 66.242289
RightForeArm 54.556325 -0.000000 1.867639
RightHand 6.237444 -0.000000 -10.006801
RightHandThumb1 -24.326973 -0.000000 -32.862282
LeftUpLeg -46.824090 31.286828 17.014593
LeftLeg -5.043549 -0.000000 0.000000
LeftFoot -0.685095 15.451076 -17.660670
LeftToeBase -5.022258 -0.000000 0.000000
RightUpLeg 3.841188 -6.392428 -9.523775
RightLeg 69.929294 -0.000000 -0.000000
RightFoot 45.222592 -4.750135 7.647020
RightToeBase 23.241122 -0.000000 -0.000000
991
root 4.119843 34.840345 -6.869126 -5.953033 48.193596 -67.736909
Spine -17.591867 -13.906979 6.416757
Head 2.549142 2.743949 38.120593
LeftShoulder -11.892129 39.864580 21.488112
LeftArm 69.833335 7.962168 -72.105922
LeftForeArm 8.958600 -0.000000 3.203063
LeftHand 10.249601 -0.000000 16.819892
LeftHandThumb1 -26.253704 0.000000 33.147579
RightShoulder -16.849016 -8.796826 -14.690606
RightArm -11.981143 33.341777 66.174713
RightForeArm 54.180319 0.000000 2.353735
RightHand 6.298812 0.000000 -10.079571
RightHandThumb1 -24.326973 -0.000000 -32.862282
LeftUpLeg -46.255629 31.070093 17.556013
LeftLeg -4.381157 -0.000000 0.000000
LeftFoot -1.026318 15.942278 -17.055681
LeftToeBase -5.671380 -0.000000 0.000000
RightUpLeg 3.185934 -6.928807 -9.136538
RightLeg 68.686019 -0.000000 -0.000000
RightFoot 45.062750 -5.397014 7.867034
RightToeBase 23.088548 -0.000000 -0.000000
992
root 4.151186 34.840711 -6.887578 -5.994555 47.769744 -67.188726
Spine -17.412641 -14.143843 6.366468
Head 3.026859 2.016414 38.062748
LeftShoulder -11.476647 39.348313 21.447887
LeftArm 70.679396 9.051112 -71.682614
LeftForeArm 9.788517 0.000000 4.141199
LeftHand 10.409271 -0.000000 17.144027
LeftHandThumb1 -26.253704 0.000000 33.147579
RightShoulder -16.735590 -8.503857 -14.987963
RightArm -11.700058 33.316964 66.056177
RightForeArm 53.401692 -0.000000 2.973131
RightHand 6.162268 -0.000000 -9.647207
RightHandThumb1 -24.326973 -0.000000 -32.862282
LeftUpLeg -45.468683 30.853098 18.130357
LeftLeg -3.846573 -0.000000 0.000000
LeftFoot -1.355825 16.521504 -16.715652
LeftToeBase -6.376868 -0.000000 0.000000
RightUpLeg 2.497112 -7.315420 -8.870746
RightLeg 67.535925 -0.000000 -0.000000
RightFoot 44.685904 -5.833790 7.807520
RightToeBase 24.195678 -0.000000 -0.000000
